ffmpeg started on 2025-07-20 at 11:55:29
Report written to "D:\Convert\FFMetrics\reports\ssim_report-6.txt"
Log level: 32
Command line:
ffmpeg -hide_banner -nostdin -i "G:\\\xc0\xed\xe8\xec\xe5\\\xce\xed\xe3\xee\xe8\xed\xe3\xe8\\!_10_\xc2\xe5\xf1\xed\xe0_2018\\\xcf\xee\xf2\xe5\xf0\xff\xed\xed\xe0\xff \xef\xe5\xf1\xed\xff\\[SHIZA Project] Lost Song ONA [03] [MVO]_HEVC.mkv" -i "G:\\\xc0\xed\xe8\xec\xe5\\\xce\xed\xe3\xee\xe8\xed\xe3\xe8\\!_10_\xc2\xe5\xf1\xed\xe0_2018\\\xcf\xee\xf2\xe5\xf0\xff\xed\xed\xe0\xff \xef\xe5\xf1\xed\xff\\[SHIZA Project] Lost Song ONA [03] [MVO].mkv" -lavfi "[0:v]settb=AVTB,setpts=PTS-STARTPTS,format=pix_fmts=yuv420p10,fps=24000/1001,scale=1280:720:flags=bicubic[main];[1:v]settb=AVTB,setpts=PTS-STARTPTS,format=pix_fmts=yuv420p,fps=24000/1001,scale=1280:720:flags=bicubic[ref];[main][ref]ssim=eof_action=endall:stats_file='D\\:/Convert/FFMetrics/logs/ssim_logfile-6.txt'" -f null -
Input #0, matroska,webm, from 'G:\Аниме\Онгоинги\!_10_Весна_2018\Потерянная песня\[SHIZA Project] Lost Song ONA [03] [MVO]_HEVC.mkv':
  Metadata:
    ENCODER         : Lavf61.7.100
  Duration: 00:23:57.14, start: -0.021000, bitrate: 606 kb/s
  Stream #0:0(jpn): Video: hevc (Main 10), yuv420p10le(tv, bt709, progressive), 1280x720 [SAR 1:1 DAR 16:9], 23.98 fps, 23.98 tbr, 1k tbn
      Metadata:
        title           : www.SHIZA-Project.com
        ENCODER         : Lavc61.19.100 libx265
        BPS             : 410545
        DURATION        : 00:23:57.060708333
        NUMBER_OF_FRAMES: 34455
        NUMBER_OF_BYTES : 73747286
        _STATISTICS_WRITING_APP: mkvpropedit v66.0.0 ('Josie') 64-bit
        _STATISTICS_WRITING_DATE_UTC: 2025-07-19 12:25:40
        _STATISTICS_TAGS: BPS DURATION NUMBER_OF_FRAMES NUMBER_OF_BYTES
  Stream #0:1(rus): Audio: aac (LC), 48000 Hz, stereo, fltp (default)
      Metadata:
        title           : MVO SHIZA Project
        ENCODER         : Lavc61.19.100 aac
        BPS             : 191912
        DURATION        : 00:23:57.120000000
        NUMBER_OF_FRAMES: 67366
        NUMBER_OF_BYTES : 34475117
        _STATISTICS_WRITING_APP: mkvpropedit v66.0.0 ('Josie') 64-bit
        _STATISTICS_WRITING_DATE_UTC: 2025-07-19 12:25:40
        _STATISTICS_TAGS: BPS DURATION NUMBER_OF_FRAMES NUMBER_OF_BYTES
Input #1, matroska,webm, from 'G:\Аниме\Онгоинги\!_10_Весна_2018\Потерянная песня\[SHIZA Project] Lost Song ONA [03] [MVO].mkv':
  Metadata:
    encoder         : libebml v1.3.0 + libmatroska v1.4.0
    creation_time   : 2018-06-05T12:12:46.000000Z
  Duration: 00:23:57.12, start: 0.000000, bitrate: 1807 kb/s
  Stream #1:0(jpn): Video: h264 (Main), yuv420p(progressive), 1280x720 [SAR 1:1 DAR 16:9], 23.98 fps, 23.98 tbr, 1k tbn
      Metadata:
        title           : www.SHIZA-Project.com
  Stream #1:1(rus): Audio: aac (LC), 48000 Hz, stereo, fltp (default)
      Metadata:
        title           : MVO SHIZA Project
Stream mapping:
  Stream #0:0 (hevc) -> settb:default
  Stream #1:0 (h264) -> settb:default
  ssim:default -> Stream #0:0 (wrapped_avframe)
  Stream #0:1 -> #0:1 (aac (native) -> pcm_s16le (native))
[swscaler @ 000001fe7981b240] No accelerated colorspace conversion found from yuv420p to bgr48le.
[swscaler @ 000001fe799b6040] No accelerated colorspace conversion found from yuv420p to bgr48le.
[swscaler @ 000001fe79a9b1c0] No accelerated colorspace conversion found from yuv420p to bgr48le.
[swscaler @ 000001fe79b1e280] No accelerated colorspace conversion found from yuv420p to bgr48le.
[swscaler @ 000001fe79b8dac0] No accelerated colorspace conversion found from yuv420p to bgr48le.
[swscaler @ 000001fe79c1af80] No accelerated colorspace conversion found from yuv420p to bgr48le.
[swscaler @ 000001fe79c76040] No accelerated colorspace conversion found from yuv420p to bgr48le.
[swscaler @ 000001fe79cd5040] No accelerated colorspace conversion found from yuv420p to bgr48le.
[swscaler @ 000001fe79d34740] No accelerated colorspace conversion found from yuv420p to bgr48le.
[swscaler @ 000001fe79dcdbc0] No accelerated colorspace conversion found from yuv420p to bgr48le.
[swscaler @ 000001fe79e36040] No accelerated colorspace conversion found from yuv420p to bgr48le.
[swscaler @ 000001fe79e99040] No accelerated colorspace conversion found from yuv420p to bgr48le.
[swscaler @ 000001fe79ef7040] No accelerated colorspace conversion found from yuv420p to bgr48le.
[swscaler @ 000001fe79f87040] No accelerated colorspace conversion found from yuv420p to bgr48le.
[swscaler @ 000001fe79fea040] No accelerated colorspace conversion found from yuv420p to bgr48le.
[swscaler @ 000001fe7a05f040] No accelerated colorspace conversion found from yuv420p to bgr48le.
Output #0, null, to 'pipe:':
  Metadata:
    encoder         : Lavf61.7.100
  Stream #0:0: Video: wrapped_avframe, yuv420p10le(tv, bt709, progressive), 1280x720 [SAR 1:1 DAR 16:9], q=2-31, 200 kb/s, 23.98 fps, 23.98 tbn
      Metadata:
        encoder         : Lavc61.19.100 wrapped_avframe
  Stream #0:1(rus): Audio: pcm_s16le, 48000 Hz, stereo, s16, 1536 kb/s (default)
      Metadata:
        title           : MVO SHIZA Project
        _STATISTICS_TAGS: BPS DURATION NUMBER_OF_FRAMES NUMBER_OF_BYTES
        BPS             : 191912
        DURATION        : 00:23:57.120000000
        NUMBER_OF_FRAMES: 67366
        NUMBER_OF_BYTES : 34475117
        _STATISTICS_WRITING_APP: mkvpropedit v66.0.0 ('Josie') 64-bit
        _STATISTICS_WRITING_DATE_UTC: 2025-07-19 12:25:40
        encoder         : Lavc61.19.100 pcm_s16le
frame=   81 fps=0.0 q=-0.0 size=N/A time=00:00:03.37 bitrate=N/A speed=6.69x    frame=  178 fps=173 q=-0.0 size=N/A time=00:00:07.42 bitrate=N/A speed=7.21x    frame=  266 fps=173 q=-0.0 size=N/A time=00:00:11.09 bitrate=N/A speed= 7.2x    frame=  367 fps=178 q=-0.0 size=N/A time=00:00:15.30 bitrate=N/A speed=7.42x    frame=  465 fps=181 q=-0.0 size=N/A time=00:00:19.39 bitrate=N/A speed=7.54x    frame=  562 fps=182 q=-0.0 size=N/A time=00:00:23.44 bitrate=N/A speed=7.58x    frame=  656 fps=182 q=-0.0 size=N/A time=00:00:27.36 bitrate=N/A speed=7.58x    frame=  749 fps=182 q=-0.0 size=N/A time=00:00:31.23 bitrate=N/A speed=7.58x    frame=  837 fps=181 q=-0.0 size=N/A time=00:00:34.90 bitrate=N/A speed=7.54x    frame=  934 fps=181 q=-0.0 size=N/A time=00:00:38.95 bitrate=N/A speed=7.55x    frame= 1025 fps=181 q=-0.0 size=N/A time=00:00:42.75 bitrate=N/A speed=7.54x    frame= 1116 fps=181 q=-0.0 size=N/A time=00:00:46.54 bitrate=N/A speed=7.54x    frame= 1204 fps=180 q=-0.0 size=N/A time=00:00:50.21 bitrate=N/A speed=7.49x    frame= 1290 fps=179 q=-0.0 size=N/A time=00:00:53.80 bitrate=N/A speed=7.47x    frame= 1400 fps=181 q=-0.0 size=N/A time=00:00:58.39 bitrate=N/A speed=7.55x    frame= 1486 fps=180 q=-0.0 size=N/A time=00:01:01.97 bitrate=N/A speed=7.52x    frame= 1585 fps=181 q=-0.0 size=N/A time=00:01:06.10 bitrate=N/A speed=7.55x    frame= 1684 fps=181 q=-0.0 size=N/A time=00:01:10.23 bitrate=N/A speed=7.57x    frame= 1776 fps=181 q=-0.0 size=N/A time=00:01:14.07 bitrate=N/A speed=7.57x    frame= 1868 fps=181 q=-0.0 size=N/A time=00:01:17.91 bitrate=N/A speed=7.56x    frame= 1967 fps=182 q=-0.0 size=N/A time=00:01:22.04 bitrate=N/A speed=7.58x    frame= 2060 fps=182 q=-0.0 size=N/A time=00:01:25.91 bitrate=N/A speed=7.58x    frame= 2159 fps=182 q=-0.0 size=N/A time=00:01:30.04 bitrate=N/A speed=7.59x    frame= 2254 fps=182 q=-0.0 size=N/A time=00:01:34.01 bitrate=N/A speed= 7.6x    frame= 2358 fps=183 q=-0.0 size=N/A time=00:01:38.34 bitrate=N/A speed=7.64x    frame= 2450 fps=183 q=-0.0 size=N/A time=00:01:42.18 bitrate=N/A speed=7.62x    frame= 2548 fps=183 q=-0.0 size=N/A time=00:01:46.27 bitrate=N/A speed=7.64x    frame= 2637 fps=183 q=-0.0 size=N/A time=00:01:49.98 bitrate=N/A speed=7.62x    frame= 2734 fps=183 q=-0.0 size=N/A time=00:01:54.03 bitrate=N/A speed=7.63x    frame= 2828 fps=183 q=-0.0 size=N/A time=00:01:57.95 bitrate=N/A speed=7.63x    frame= 2912 fps=182 q=-0.0 size=N/A time=00:02:01.45 bitrate=N/A speed= 7.6x    frame= 3013 fps=183 q=-0.0 size=N/A time=00:02:05.66 bitrate=N/A speed=7.62x    frame= 3108 fps=183 q=-0.0 size=N/A time=00:02:09.62 bitrate=N/A speed=7.62x    frame= 3200 fps=183 q=-0.0 size=N/A time=00:02:13.46 bitrate=N/A speed=7.62x    frame= 3289 fps=182 q=-0.0 size=N/A time=00:02:17.17 bitrate=N/A speed= 7.6x    frame= 3372 fps=182 q=-0.0 size=N/A time=00:02:20.64 bitrate=N/A speed=7.58x    frame= 3472 fps=182 q=-0.0 size=N/A time=00:02:24.81 bitrate=N/A speed=7.59x    frame= 3564 fps=182 q=-0.0 size=N/A time=00:02:28.64 bitrate=N/A speed=7.59x    frame= 3656 fps=182 q=-0.0 size=N/A time=00:02:32.48 bitrate=N/A speed=7.59x    frame= 3755 fps=182 q=-0.0 size=N/A time=00:02:36.61 bitrate=N/A speed=7.59x    frame= 3849 fps=182 q=-0.0 size=N/A time=00:02:40.53 bitrate=N/A speed= 7.6x    frame= 3936 fps=182 q=-0.0 size=N/A time=00:02:44.16 bitrate=N/A speed=7.58x    frame= 4030 fps=182 q=-0.0 size=N/A time=00:02:48.08 bitrate=N/A speed=7.58x    frame= 4125 fps=182 q=-0.0 size=N/A time=00:02:52.04 bitrate=N/A speed=7.59x    frame= 4214 fps=182 q=-0.0 size=N/A time=00:02:55.75 bitrate=N/A speed=7.57x    frame= 4309 fps=182 q=-0.0 size=N/A time=00:02:59.72 bitrate=N/A speed=7.58x    frame= 4400 fps=182 q=-0.0 size=N/A time=00:03:03.51 bitrate=N/A speed=7.57x    frame= 4487 fps=181 q=-0.0 size=N/A time=00:03:07.14 bitrate=N/A speed=7.56x    frame= 4572 fps=181 q=-0.0 size=N/A time=00:03:10.69 bitrate=N/A speed=7.55x    frame= 4661 fps=181 q=-0.0 size=N/A time=00:03:14.40 bitrate=N/A speed=7.54x    frame= 4748 fps=181 q=-0.0 size=N/A time=00:03:18.03 bitrate=N/A speed=7.53x    frame= 4851 fps=181 q=-0.0 size=N/A time=00:03:22.32 bitrate=N/A speed=7.55x    frame= 4942 fps=181 q=-0.0 size=N/A time=00:03:26.12 bitrate=N/A speed=7.54x    frame= 5030 fps=181 q=-0.0 size=N/A time=00:03:29.79 bitrate=N/A speed=7.54x    frame= 5127 fps=181 q=-0.0 size=N/A time=00:03:33.83 bitrate=N/A speed=7.54x    frame= 5221 fps=181 q=-0.0 size=N/A time=00:03:37.75 bitrate=N/A speed=7.54x    frame= 5315 fps=181 q=-0.0 size=N/A time=00:03:41.67 bitrate=N/A speed=7.54x    frame= 5404 fps=181 q=-0.0 size=N/A time=00:03:45.39 bitrate=N/A speed=7.54x    frame= 5493 fps=181 q=-0.0 size=N/A time=00:03:49.10 bitrate=N/A speed=7.53x    frame= 5590 fps=181 q=-0.0 size=N/A time=00:03:53.14 bitrate=N/A speed=7.54x    frame= 5685 fps=181 q=-0.0 size=N/A time=00:03:57.11 bitrate=N/A speed=7.54x    frame= 5772 fps=181 q=-0.0 size=N/A time=00:04:00.74 bitrate=N/A speed=7.53x    frame= 5861 fps=180 q=-0.0 size=N/A time=00:04:04.45 bitrate=N/A speed=7.53x    frame= 5958 fps=181 q=-0.0 size=N/A time=00:04:08.49 bitrate=N/A speed=7.53x    frame= 6052 fps=181 q=-0.0 size=N/A time=00:04:12.41 bitrate=N/A speed=7.53x    frame= 6144 fps=181 q=-0.0 size=N/A time=00:04:16.25 bitrate=N/A speed=7.53x    frame= 6237 fps=181 q=-0.0 size=N/A time=00:04:20.13 bitrate=N/A speed=7.53x    frame= 6316 fps=180 q=-0.0 size=N/A time=00:04:23.42 bitrate=N/A speed=7.52x    frame= 6428 fps=181 q=-0.0 size=N/A time=00:04:28.10 bitrate=N/A speed=7.54x    frame= 6506 fps=180 q=-0.0 size=N/A time=00:04:31.35 bitrate=N/A speed=7.52x    frame= 6613 fps=181 q=-0.0 size=N/A time=00:04:35.81 bitrate=N/A speed=7.53x    frame= 6711 fps=181 q=-0.0 size=N/A time=00:04:39.90 bitrate=N/A speed=7.54x    frame= 6805 fps=181 q=-0.0 size=N/A time=00:04:43.82 bitrate=N/A speed=7.54x    frame= 6894 fps=181 q=-0.0 size=N/A time=00:04:47.53 bitrate=N/A speed=7.54x    frame= 6989 fps=181 q=-0.0 size=N/A time=00:04:51.49 bitrate=N/A speed=7.54x    frame= 7084 fps=181 q=-0.0 size=N/A time=00:04:55.46 bitrate=N/A speed=7.54x    frame= 7182 fps=181 q=-0.0 size=N/A time=00:04:59.54 bitrate=N/A speed=7.54x    frame= 7276 fps=181 q=-0.0 size=N/A time=00:05:03.46 bitrate=N/A speed=7.55x    frame= 7371 fps=181 q=-0.0 size=N/A time=00:05:07.43 bitrate=N/A speed=7.55x    frame= 7468 fps=181 q=-0.0 size=N/A time=00:05:11.47 bitrate=N/A speed=7.55x    frame= 7565 fps=181 q=-0.0 size=N/A time=00:05:15.52 bitrate=N/A speed=7.56x    frame= 7655 fps=181 q=-0.0 size=N/A time=00:05:19.27 bitrate=N/A speed=7.55x    frame= 7749 fps=181 q=-0.0 size=N/A time=00:05:23.19 bitrate=N/A speed=7.55x    frame= 7837 fps=181 q=-0.0 size=N/A time=00:05:26.86 bitrate=N/A speed=7.55x    frame= 7924 fps=181 q=-0.0 size=N/A time=00:05:30.49 bitrate=N/A speed=7.54x    frame= 8018 fps=181 q=-0.0 size=N/A time=00:05:34.41 bitrate=N/A speed=7.54x    frame= 8115 fps=181 q=-0.0 size=N/A time=00:05:38.46 bitrate=N/A speed=7.55x    frame= 8202 fps=181 q=-0.0 size=N/A time=00:05:42.09 bitrate=N/A speed=7.54x    frame= 8299 fps=181 q=-0.0 size=N/A time=00:05:46.13 bitrate=N/A speed=7.54x    frame= 8394 fps=181 q=-0.0 size=N/A time=00:05:50.09 bitrate=N/A speed=7.55x    frame= 8483 fps=181 q=-0.0 size=N/A time=00:05:53.81 bitrate=N/A speed=7.54x    frame= 8584 fps=181 q=-0.0 size=N/A time=00:05:58.02 bitrate=N/A speed=7.55x    frame= 8675 fps=181 q=-0.0 size=N/A time=00:06:01.81 bitrate=N/A speed=7.55x    frame= 8766 fps=181 q=-0.0 size=N/A time=00:06:05.61 bitrate=N/A speed=7.54x    frame= 8858 fps=181 q=-0.0 size=N/A time=00:06:09.45 bitrate=N/A speed=7.54x    frame= 8951 fps=181 q=-0.0 size=N/A time=00:06:13.33 bitrate=N/A speed=7.54x    frame= 9044 fps=181 q=-0.0 size=N/A time=00:06:17.21 bitrate=N/A speed=7.54x    frame= 9137 fps=181 q=-0.0 size=N/A time=00:06:21.08 bitrate=N/A speed=7.54x    frame= 9231 fps=181 q=-0.0 size=N/A time=00:06:25.00 bitrate=N/A speed=7.54x    frame= 9312 fps=181 q=-0.0 size=N/A time=00:06:28.38 bitrate=N/A speed=7.53x    frame= 9411 fps=181 q=-0.0 size=N/A time=00:06:32.51 bitrate=N/A speed=7.54x    frame= 9500 fps=181 q=-0.0 size=N/A time=00:06:36.22 bitrate=N/A speed=7.53x    frame= 9594 fps=181 q=-0.0 size=N/A time=00:06:40.14 bitrate=N/A speed=7.53x    frame= 9688 fps=181 q=-0.0 size=N/A time=00:06:44.07 bitrate=N/A speed=7.53x    frame= 9783 fps=181 q=-0.0 size=N/A time=00:06:48.03 bitrate=N/A speed=7.53x    frame= 9877 fps=181 q=-0.0 size=N/A time=00:06:51.95 bitrate=N/A speed=7.54x    frame= 9962 fps=181 q=-0.0 size=N/A time=00:06:55.49 bitrate=N/A speed=7.53x    frame=10050 fps=180 q=-0.0 size=N/A time=00:06:59.16 bitrate=N/A speed=7.52x    frame=10149 fps=181 q=-0.0 size=N/A time=00:07:03.29 bitrate=N/A speed=7.53x    frame=10244 fps=181 q=-0.0 size=N/A time=00:07:07.26 bitrate=N/A speed=7.53x    frame=10337 fps=181 q=-0.0 size=N/A time=00:07:11.13 bitrate=N/A speed=7.53x    frame=10427 fps=181 q=-0.0 size=N/A time=00:07:14.89 bitrate=N/A speed=7.53x    frame=10521 fps=181 q=-0.0 size=N/A time=00:07:18.81 bitrate=N/A speed=7.53x    frame=10611 fps=180 q=-0.0 size=N/A time=00:07:22.56 bitrate=N/A speed=7.53x    frame=10705 fps=181 q=-0.0 size=N/A time=00:07:26.48 bitrate=N/A speed=7.53x    frame=10795 fps=180 q=-0.0 size=N/A time=00:07:30.24 bitrate=N/A speed=7.53x    frame=10890 fps=180 q=-0.0 size=N/A time=00:07:34.20 bitrate=N/A speed=7.53x    frame=10984 fps=180 q=-0.0 size=N/A time=00:07:38.12 bitrate=N/A speed=7.53x    frame=11079 fps=181 q=-0.0 size=N/A time=00:07:42.08 bitrate=N/A speed=7.53x    frame=11173 fps=181 q=-0.0 size=N/A time=00:07:46.00 bitrate=N/A speed=7.53x    frame=11264 fps=181 q=-0.0 size=N/A time=00:07:49.80 bitrate=N/A speed=7.53x    frame=11356 fps=180 q=-0.0 size=N/A time=00:07:53.63 bitrate=N/A speed=7.53x    frame=11446 fps=180 q=-0.0 size=N/A time=00:07:57.39 bitrate=N/A speed=7.53x    frame=11541 fps=180 q=-0.0 size=N/A time=00:08:01.35 bitrate=N/A speed=7.53x    frame=11636 fps=180 q=-0.0 size=N/A time=00:08:05.31 bitrate=N/A speed=7.53x    frame=11728 fps=180 q=-0.0 size=N/A time=00:08:09.15 bitrate=N/A speed=7.53x    frame=11812 fps=180 q=-0.0 size=N/A time=00:08:12.65 bitrate=N/A speed=7.52x    frame=11910 fps=180 q=-0.0 size=N/A time=00:08:16.74 bitrate=N/A speed=7.53x    frame=12010 fps=181 q=-0.0 size=N/A time=00:08:20.91 bitrate=N/A speed=7.53x    frame=12099 fps=180 q=-0.0 size=N/A time=00:08:24.62 bitrate=N/A speed=7.53x    frame=12193 fps=180 q=-0.0 size=N/A time=00:08:28.54 bitrate=N/A speed=7.53x    frame=12281 fps=180 q=-0.0 size=N/A time=00:08:32.22 bitrate=N/A speed=7.52x    frame=12383 fps=181 q=-0.0 size=N/A time=00:08:36.47 bitrate=N/A speed=7.53x    frame=12474 fps=181 q=-0.0 size=N/A time=00:08:40.26 bitrate=N/A speed=7.53x    frame=12566 fps=180 q=-0.0 size=N/A time=00:08:44.10 bitrate=N/A speed=7.53x    frame=12656 fps=180 q=-0.0 size=N/A time=00:08:47.86 bitrate=N/A speed=7.53x    frame=12746 fps=180 q=-0.0 size=N/A time=00:08:51.61 bitrate=N/A speed=7.53x    frame=12846 fps=180 q=-0.0 size=N/A time=00:08:55.78 bitrate=N/A speed=7.53x    frame=12937 fps=180 q=-0.0 size=N/A time=00:08:59.58 bitrate=N/A speed=7.53x    frame=13027 fps=180 q=-0.0 size=N/A time=00:09:03.33 bitrate=N/A speed=7.53x    frame=13120 fps=180 q=-0.0 size=N/A time=00:09:07.21 bitrate=N/A speed=7.53x    frame=13215 fps=180 q=-0.0 size=N/A time=00:09:11.17 bitrate=N/A speed=7.53x    frame=13297 fps=180 q=-0.0 size=N/A time=00:09:14.59 bitrate=N/A speed=7.52x    frame=13388 fps=180 q=-0.0 size=N/A time=00:09:18.39 bitrate=N/A speed=7.52x    frame=13487 fps=180 q=-0.0 size=N/A time=00:09:22.52 bitrate=N/A speed=7.52x    frame=13579 fps=180 q=-0.0 size=N/A time=00:09:26.35 bitrate=N/A speed=7.52x    frame=13668 fps=180 q=-0.0 size=N/A time=00:09:30.06 bitrate=N/A speed=7.52x    frame=13766 fps=180 q=-0.0 size=N/A time=00:09:34.15 bitrate=N/A speed=7.52x    frame=13850 fps=180 q=-0.0 size=N/A time=00:09:37.66 bitrate=N/A speed=7.52x    frame=13947 fps=180 q=-0.0 size=N/A time=00:09:41.70 bitrate=N/A speed=7.52x    frame=14035 fps=180 q=-0.0 size=N/A time=00:09:45.37 bitrate=N/A speed=7.52x    frame=14135 fps=180 q=-0.0 size=N/A time=00:09:49.54 bitrate=N/A speed=7.52x    frame=14235 fps=180 q=-0.0 size=N/A time=00:09:53.71 bitrate=N/A speed=7.52x    frame=14328 fps=180 q=-0.0 size=N/A time=00:09:57.59 bitrate=N/A speed=7.52x    frame=14423 fps=180 q=-0.0 size=N/A time=00:10:01.55 bitrate=N/A speed=7.53x    frame=14515 fps=180 q=-0.0 size=N/A time=00:10:05.39 bitrate=N/A speed=7.53x    frame=14597 fps=180 q=-0.0 size=N/A time=00:10:08.81 bitrate=N/A speed=7.52x    frame=14699 fps=180 q=-0.0 size=N/A time=00:10:13.07 bitrate=N/A speed=7.52x    frame=14793 fps=180 q=-0.0 size=N/A time=00:10:16.99 bitrate=N/A speed=7.52x    frame=14884 fps=180 q=-0.0 size=N/A time=00:10:20.78 bitrate=N/A speed=7.52x    frame=14980 fps=180 q=-0.0 size=N/A time=00:10:24.79 bitrate=N/A speed=7.52x    frame=15073 fps=180 q=-0.0 size=N/A time=00:10:28.66 bitrate=N/A speed=7.53x    frame=15169 fps=180 q=-0.0 size=N/A time=00:10:32.67 bitrate=N/A speed=7.53x    frame=15259 fps=180 q=-0.0 size=N/A time=00:10:36.42 bitrate=N/A speed=7.53x    frame=15359 fps=181 q=-0.0 size=N/A time=00:10:40.59 bitrate=N/A speed=7.53x    frame=15450 fps=180 q=-0.0 size=N/A time=00:10:44.39 bitrate=N/A speed=7.53x    frame=15544 fps=180 q=-0.0 size=N/A time=00:10:48.31 bitrate=N/A speed=7.53x    frame=15635 fps=180 q=-0.0 size=N/A time=00:10:52.10 bitrate=N/A speed=7.53x    frame=15735 fps=181 q=-0.0 size=N/A time=00:10:56.28 bitrate=N/A speed=7.53x    frame=15834 fps=181 q=-0.0 size=N/A time=00:11:00.40 bitrate=N/A speed=7.53x    frame=15931 fps=181 q=-0.0 size=N/A time=00:11:04.45 bitrate=N/A speed=7.53x    frame=16025 fps=181 q=-0.0 size=N/A time=00:11:08.37 bitrate=N/A speed=7.53x    frame=16118 fps=181 q=-0.0 size=N/A time=00:11:12.25 bitrate=N/A speed=7.53x    frame=16205 fps=181 q=-0.0 size=N/A time=00:11:15.88 bitrate=N/A speed=7.53x    frame=16300 fps=181 q=-0.0 size=N/A time=00:11:19.84 bitrate=N/A speed=7.53x    frame=16393 fps=181 q=-0.0 size=N/A time=00:11:23.72 bitrate=N/A speed=7.53x    frame=16481 fps=181 q=-0.0 size=N/A time=00:11:27.39 bitrate=N/A speed=7.53x    frame=16565 fps=180 q=-0.0 size=N/A time=00:11:30.89 bitrate=N/A speed=7.53x    frame=16672 fps=181 q=-0.0 size=N/A time=00:11:35.36 bitrate=N/A speed=7.53x    frame=16772 fps=181 q=-0.0 size=N/A time=00:11:39.53 bitrate=N/A speed=7.53x    frame=16861 fps=181 q=-0.0 size=N/A time=00:11:43.24 bitrate=N/A speed=7.53x    frame=16961 fps=181 q=-0.0 size=N/A time=00:11:47.41 bitrate=N/A speed=7.54x    frame=17055 fps=181 q=-0.0 size=N/A time=00:11:51.33 bitrate=N/A speed=7.54x    frame=17153 fps=181 q=-0.0 size=N/A time=00:11:55.42 bitrate=N/A speed=7.54x    frame=17249 fps=181 q=-0.0 size=N/A time=00:11:59.42 bitrate=N/A speed=7.54x    frame=17343 fps=181 q=-0.0 size=N/A time=00:12:03.34 bitrate=N/A speed=7.54x    frame=17444 fps=181 q=-0.0 size=N/A time=00:12:07.56 bitrate=N/A speed=7.54x    frame=17541 fps=181 q=-0.0 size=N/A time=00:12:11.60 bitrate=N/A speed=7.54x    frame=17634 fps=181 q=-0.0 size=N/A time=00:12:15.48 bitrate=N/A speed=7.55x    frame=17729 fps=181 q=-0.0 size=N/A time=00:12:19.44 bitrate=N/A speed=7.55x    frame=17820 fps=181 q=-0.0 size=N/A time=00:12:23.24 bitrate=N/A speed=7.54x    frame=17916 fps=181 q=-0.0 size=N/A time=00:12:27.24 bitrate=N/A speed=7.55x    frame=18001 fps=181 q=-0.0 size=N/A time=00:12:30.79 bitrate=N/A speed=7.54x    frame=18096 fps=181 q=-0.0 size=N/A time=00:12:34.75 bitrate=N/A speed=7.54x    frame=18183 fps=181 q=-0.0 size=N/A time=00:12:38.38 bitrate=N/A speed=7.54x    frame=18286 fps=181 q=-0.0 size=N/A time=00:12:42.67 bitrate=N/A speed=7.54x    frame=18367 fps=181 q=-0.0 size=N/A time=00:12:46.05 bitrate=N/A speed=7.54x    frame=18479 fps=181 q=-0.0 size=N/A time=00:12:50.72 bitrate=N/A speed=7.55x    frame=18570 fps=181 q=-0.0 size=N/A time=00:12:54.52 bitrate=N/A speed=7.55x    frame=18662 fps=181 q=-0.0 size=N/A time=00:12:58.36 bitrate=N/A speed=7.55x    frame=18760 fps=181 q=-0.0 size=N/A time=00:13:02.44 bitrate=N/A speed=7.55x    frame=18856 fps=181 q=-0.0 size=N/A time=00:13:06.45 bitrate=N/A speed=7.55x    frame=18954 fps=181 q=-0.0 size=N/A time=00:13:10.53 bitrate=N/A speed=7.55x    frame=19046 fps=181 q=-0.0 size=N/A time=00:13:14.37 bitrate=N/A speed=7.55x    frame=19142 fps=181 q=-0.0 size=N/A time=00:13:18.38 bitrate=N/A speed=7.55x    frame=19242 fps=181 q=-0.0 size=N/A time=00:13:22.55 bitrate=N/A speed=7.55x    frame=19338 fps=181 q=-0.0 size=N/A time=00:13:26.55 bitrate=N/A speed=7.55x    frame=19430 fps=181 q=-0.0 size=N/A time=00:13:30.39 bitrate=N/A speed=7.55x    frame=19525 fps=181 q=-0.0 size=N/A time=00:13:34.35 bitrate=N/A speed=7.55x    frame=19614 fps=181 q=-0.0 size=N/A time=00:13:38.06 bitrate=N/A speed=7.55x    frame=19705 fps=181 q=-0.0 size=N/A time=00:13:41.86 bitrate=N/A speed=7.55x    frame=19795 fps=181 q=-0.0 size=N/A time=00:13:45.61 bitrate=N/A speed=7.55x    frame=19881 fps=181 q=-0.0 size=N/A time=00:13:49.20 bitrate=N/A speed=7.55x    frame=19977 fps=181 q=-0.0 size=N/A time=00:13:53.20 bitrate=N/A speed=7.55x    frame=20072 fps=181 q=-0.0 size=N/A time=00:13:57.16 bitrate=N/A speed=7.55x    frame=20153 fps=181 q=-0.0 size=N/A time=00:14:00.54 bitrate=N/A speed=7.54x    frame=20255 fps=181 q=-0.0 size=N/A time=00:14:04.80 bitrate=N/A speed=7.55x    frame=20345 fps=181 q=-0.0 size=N/A time=00:14:08.55 bitrate=N/A speed=7.55x    frame=20444 fps=181 q=-0.0 size=N/A time=00:14:12.68 bitrate=N/A speed=7.55x    frame=20525 fps=181 q=-0.0 size=N/A time=00:14:16.06 bitrate=N/A speed=7.54x    frame=20626 fps=181 q=-0.0 size=N/A time=00:14:20.27 bitrate=N/A speed=7.55x    frame=20715 fps=181 q=-0.0 size=N/A time=00:14:23.98 bitrate=N/A speed=7.55x    frame=20810 fps=181 q=-0.0 size=N/A time=00:14:27.95 bitrate=N/A speed=7.55x    frame=20906 fps=181 q=-0.0 size=N/A time=00:14:31.95 bitrate=N/A speed=7.55x    frame=20998 fps=181 q=-0.0 size=N/A time=00:14:35.79 bitrate=N/A speed=7.55x    frame=21094 fps=181 q=-0.0 size=N/A time=00:14:39.79 bitrate=N/A speed=7.55x    frame=21186 fps=181 q=-0.0 size=N/A time=00:14:43.63 bitrate=N/A speed=7.55x    frame=21279 fps=181 q=-0.0 size=N/A time=00:14:47.51 bitrate=N/A speed=7.55x    frame=21369 fps=181 q=-0.0 size=N/A time=00:14:51.26 bitrate=N/A speed=7.55x    frame=21455 fps=181 q=-0.0 size=N/A time=00:14:54.85 bitrate=N/A speed=7.54x    frame=21544 fps=181 q=-0.0 size=N/A time=00:14:58.56 bitrate=N/A speed=7.54x    frame=21642 fps=181 q=-0.0 size=N/A time=00:15:02.65 bitrate=N/A speed=7.54x    frame=21726 fps=181 q=-0.0 size=N/A time=00:15:06.15 bitrate=N/A speed=7.54x    frame=21824 fps=181 q=-0.0 size=N/A time=00:15:10.24 bitrate=N/A speed=7.54x    frame=21906 fps=181 q=-0.0 size=N/A time=00:15:13.66 bitrate=N/A speed=7.54x    frame=22007 fps=181 q=-0.0 size=N/A time=00:15:17.87 bitrate=N/A speed=7.54x    frame=22102 fps=181 q=-0.0 size=N/A time=00:15:21.83 bitrate=N/A speed=7.54x    frame=22197 fps=181 q=-0.0 size=N/A time=00:15:25.79 bitrate=N/A speed=7.54x    frame=22296 fps=181 q=-0.0 size=N/A time=00:15:29.92 bitrate=N/A speed=7.54x    frame=22387 fps=181 q=-0.0 size=N/A time=00:15:33.72 bitrate=N/A speed=7.54x    frame=22482 fps=181 q=-0.0 size=N/A time=00:15:37.68 bitrate=N/A speed=7.54x    frame=22567 fps=181 q=-0.0 size=N/A time=00:15:41.23 bitrate=N/A speed=7.54x    frame=22673 fps=181 q=-0.0 size=N/A time=00:15:45.65 bitrate=N/A speed=7.54x    frame=22771 fps=181 q=-0.0 size=N/A time=00:15:49.74 bitrate=N/A speed=7.55x    frame=22858 fps=181 q=-0.0 size=N/A time=00:15:53.36 bitrate=N/A speed=7.54x    frame=22944 fps=181 q=-0.0 size=N/A time=00:15:56.95 bitrate=N/A speed=7.54x    frame=23047 fps=181 q=-0.0 size=N/A time=00:16:01.25 bitrate=N/A speed=7.54x    frame=23137 fps=181 q=-0.0 size=N/A time=00:16:05.00 bitrate=N/A speed=7.54x    frame=23230 fps=181 q=-0.0 size=N/A time=00:16:08.88 bitrate=N/A speed=7.54x    frame=23323 fps=181 q=-0.0 size=N/A time=00:16:12.76 bitrate=N/A speed=7.54x    frame=23414 fps=181 q=-0.0 size=N/A time=00:16:16.55 bitrate=N/A speed=7.54x    frame=23509 fps=181 q=-0.0 size=N/A time=00:16:20.52 bitrate=N/A speed=7.54x    frame=23600 fps=181 q=-0.0 size=N/A time=00:16:24.31 bitrate=N/A speed=7.54x    frame=23684 fps=181 q=-0.0 size=N/A time=00:16:27.82 bitrate=N/A speed=7.54x    frame=23789 fps=181 q=-0.0 size=N/A time=00:16:32.19 bitrate=N/A speed=7.54x    frame=23884 fps=181 q=-0.0 size=N/A time=00:16:36.16 bitrate=N/A speed=7.54x    frame=23970 fps=181 q=-0.0 size=N/A time=00:16:39.74 bitrate=N/A speed=7.54x    frame=24062 fps=181 q=-0.0 size=N/A time=00:16:43.58 bitrate=N/A speed=7.54x    frame=24168 fps=181 q=-0.0 size=N/A time=00:16:48.00 bitrate=N/A speed=7.55x    frame=24266 fps=181 q=-0.0 size=N/A time=00:16:52.09 bitrate=N/A speed=7.55x    frame=24359 fps=181 q=-0.0 size=N/A time=00:16:55.97 bitrate=N/A speed=7.55x    frame=24457 fps=181 q=-0.0 size=N/A time=00:17:00.06 bitrate=N/A speed=7.55x    frame=24552 fps=181 q=-0.0 size=N/A time=00:17:04.02 bitrate=N/A speed=7.55x    frame=24638 fps=181 q=-0.0 size=N/A time=00:17:07.60 bitrate=N/A speed=7.55x    frame=24733 fps=181 q=-0.0 size=N/A time=00:17:11.57 bitrate=N/A speed=7.55x    frame=24823 fps=181 q=-0.0 size=N/A time=00:17:15.32 bitrate=N/A speed=7.55x    frame=24914 fps=181 q=-0.0 size=N/A time=00:17:19.12 bitrate=N/A speed=7.55x    frame=25008 fps=181 q=-0.0 size=N/A time=00:17:23.04 bitrate=N/A speed=7.54x    frame=25104 fps=181 q=-0.0 size=N/A time=00:17:27.04 bitrate=N/A speed=7.55x    frame=25200 fps=181 q=-0.0 size=N/A time=00:17:31.05 bitrate=N/A speed=7.55x    frame=25294 fps=181 q=-0.0 size=N/A time=00:17:34.97 bitrate=N/A speed=7.55x    frame=25389 fps=181 q=-0.0 size=N/A time=00:17:38.93 bitrate=N/A speed=7.55x    frame=25477 fps=181 q=-0.0 size=N/A time=00:17:42.60 bitrate=N/A speed=7.55x    frame=25576 fps=181 q=-0.0 size=N/A time=00:17:46.73 bitrate=N/A speed=7.55x    frame=25672 fps=181 q=-0.0 size=N/A time=00:17:50.73 bitrate=N/A speed=7.55x    frame=25768 fps=181 q=-0.0 size=N/A time=00:17:54.74 bitrate=N/A speed=7.55x    frame=25863 fps=181 q=-0.0 size=N/A time=00:17:58.70 bitrate=N/A speed=7.55x    frame=25953 fps=181 q=-0.0 size=N/A time=00:18:02.45 bitrate=N/A speed=7.55x    frame=26055 fps=181 q=-0.0 size=N/A time=00:18:06.71 bitrate=N/A speed=7.55x    frame=26152 fps=181 q=-0.0 size=N/A time=00:18:10.75 bitrate=N/A speed=7.55x    frame=26246 fps=181 q=-0.0 size=N/A time=00:18:14.67 bitrate=N/A speed=7.55x    frame=26331 fps=181 q=-0.0 size=N/A time=00:18:18.22 bitrate=N/A speed=7.55x    frame=26431 fps=181 q=-0.0 size=N/A time=00:18:22.39 bitrate=N/A speed=7.55x    frame=26516 fps=181 q=-0.0 size=N/A time=00:18:25.93 bitrate=N/A speed=7.55x    frame=26612 fps=181 q=-0.0 size=N/A time=00:18:29.94 bitrate=N/A speed=7.55x    frame=26701 fps=181 q=-0.0 size=N/A time=00:18:33.65 bitrate=N/A speed=7.55x    frame=26799 fps=181 q=-0.0 size=N/A time=00:18:37.74 bitrate=N/A speed=7.55x    frame=26893 fps=181 q=-0.0 size=N/A time=00:18:41.66 bitrate=N/A speed=7.55x    frame=26986 fps=181 q=-0.0 size=N/A time=00:18:45.54 bitrate=N/A speed=7.55x    frame=27082 fps=181 q=-0.0 size=N/A time=00:18:49.54 bitrate=N/A speed=7.55x    frame=27178 fps=181 q=-0.0 size=N/A time=00:18:53.54 bitrate=N/A speed=7.55x    frame=27274 fps=181 q=-0.0 size=N/A time=00:18:57.55 bitrate=N/A speed=7.55x    frame=27370 fps=181 q=-0.0 size=N/A time=00:19:01.55 bitrate=N/A speed=7.55x    frame=27465 fps=181 q=-0.0 size=N/A time=00:19:05.51 bitrate=N/A speed=7.55x    frame=27560 fps=181 q=-0.0 size=N/A time=00:19:09.48 bitrate=N/A speed=7.55x    frame=27656 fps=181 q=-0.0 size=N/A time=00:19:13.48 bitrate=N/A speed=7.56x    frame=27751 fps=181 q=-0.0 size=N/A time=00:19:17.44 bitrate=N/A speed=7.56x    frame=27847 fps=181 q=-0.0 size=N/A time=00:19:21.45 bitrate=N/A speed=7.56x    frame=27943 fps=181 q=-0.0 size=N/A time=00:19:25.45 bitrate=N/A speed=7.56x    frame=28031 fps=181 q=-0.0 size=N/A time=00:19:29.12 bitrate=N/A speed=7.55x    frame=28131 fps=181 q=-0.0 size=N/A time=00:19:33.29 bitrate=N/A speed=7.56x    frame=28221 fps=181 q=-0.0 size=N/A time=00:19:37.05 bitrate=N/A speed=7.56x    frame=28313 fps=181 q=-0.0 size=N/A time=00:19:40.88 bitrate=N/A speed=7.56x    frame=28399 fps=181 q=-0.0 size=N/A time=00:19:44.47 bitrate=N/A speed=7.55x    frame=28491 fps=181 q=-0.0 size=N/A time=00:19:48.31 bitrate=N/A speed=7.55x    frame=28597 fps=181 q=-0.0 size=N/A time=00:19:52.73 bitrate=N/A speed=7.56x    frame=28691 fps=181 q=-0.0 size=N/A time=00:19:56.65 bitrate=N/A speed=7.56x    frame=28783 fps=181 q=-0.0 size=N/A time=00:20:00.49 bitrate=N/A speed=7.56x    frame=28882 fps=181 q=-0.0 size=N/A time=00:20:04.62 bitrate=N/A speed=7.56x    frame=28977 fps=181 q=-0.0 size=N/A time=00:20:08.58 bitrate=N/A speed=7.56x    frame=29059 fps=181 q=-0.0 size=N/A time=00:20:12.00 bitrate=N/A speed=7.56x    frame=29166 fps=181 q=-0.0 size=N/A time=00:20:16.46 bitrate=N/A speed=7.56x    frame=29267 fps=181 q=-0.0 size=N/A time=00:20:20.67 bitrate=N/A speed=7.56x    frame=29366 fps=181 q=-0.0 size=N/A time=00:20:24.80 bitrate=N/A speed=7.56x    frame=29462 fps=181 q=-0.0 size=N/A time=00:20:28.81 bitrate=N/A speed=7.56x    frame=29562 fps=181 q=-0.0 size=N/A time=00:20:32.98 bitrate=N/A speed=7.56x    frame=29655 fps=181 q=-0.0 size=N/A time=00:20:36.86 bitrate=N/A speed=7.56x    frame=29745 fps=181 q=-0.0 size=N/A time=00:20:40.61 bitrate=N/A speed=7.56x    frame=29839 fps=181 q=-0.0 size=N/A time=00:20:44.53 bitrate=N/A speed=7.56x    frame=29929 fps=181 q=-0.0 size=N/A time=00:20:48.28 bitrate=N/A speed=7.56x    frame=30021 fps=181 q=-0.0 size=N/A time=00:20:52.12 bitrate=N/A speed=7.56x    frame=30111 fps=181 q=-0.0 size=N/A time=00:20:55.87 bitrate=N/A speed=7.56x    frame=30207 fps=181 q=-0.0 size=N/A time=00:20:59.88 bitrate=N/A speed=7.56x    frame=30304 fps=181 q=-0.0 size=N/A time=00:21:03.92 bitrate=N/A speed=7.56x    frame=30396 fps=181 q=-0.0 size=N/A time=00:21:07.76 bitrate=N/A speed=7.56x    frame=30489 fps=181 q=-0.0 size=N/A time=00:21:11.64 bitrate=N/A speed=7.56x    frame=30586 fps=181 q=-0.0 size=N/A time=00:21:15.69 bitrate=N/A speed=7.56x    frame=30679 fps=181 q=-0.0 size=N/A time=00:21:19.56 bitrate=N/A speed=7.56x    frame=30777 fps=181 q=-0.0 size=N/A time=00:21:23.65 bitrate=N/A speed=7.56x    frame=30871 fps=181 q=-0.0 size=N/A time=00:21:27.57 bitrate=N/A speed=7.56x    frame=30961 fps=181 q=-0.0 size=N/A time=00:21:31.33 bitrate=N/A speed=7.56x    frame=31065 fps=181 q=-0.0 size=N/A time=00:21:35.66 bitrate=N/A speed=7.57x    frame=31155 fps=181 q=-0.0 size=N/A time=00:21:39.42 bitrate=N/A speed=7.56x    frame=31255 fps=181 q=-0.0 size=N/A time=00:21:43.59 bitrate=N/A speed=7.57x    frame=31344 fps=181 q=-0.0 size=N/A time=00:21:47.30 bitrate=N/A speed=7.57x    frame=31434 fps=181 q=-0.0 size=N/A time=00:21:51.05 bitrate=N/A speed=7.56x    frame=31528 fps=181 q=-0.0 size=N/A time=00:21:54.98 bitrate=N/A speed=7.56x    frame=31618 fps=181 q=-0.0 size=N/A time=00:21:58.73 bitrate=N/A speed=7.56x    frame=31713 fps=181 q=-0.0 size=N/A time=00:22:02.69 bitrate=N/A speed=7.56x    frame=31808 fps=181 q=-0.0 size=N/A time=00:22:06.65 bitrate=N/A speed=7.56x    frame=31894 fps=181 q=-0.0 size=N/A time=00:22:10.24 bitrate=N/A speed=7.56x    frame=31989 fps=181 q=-0.0 size=N/A time=00:22:14.20 bitrate=N/A speed=7.56x    frame=32087 fps=181 q=-0.0 size=N/A time=00:22:18.29 bitrate=N/A speed=7.56x    frame=32183 fps=181 q=-0.0 size=N/A time=00:22:22.29 bitrate=N/A speed=7.56x    frame=32277 fps=181 q=-0.0 size=N/A time=00:22:26.21 bitrate=N/A speed=7.56x    frame=32369 fps=181 q=-0.0 size=N/A time=00:22:30.05 bitrate=N/A speed=7.56x    frame=32452 fps=181 q=-0.0 size=N/A time=00:22:33.51 bitrate=N/A speed=7.56x    frame=32552 fps=181 q=-0.0 size=N/A time=00:22:37.68 bitrate=N/A speed=7.56x    frame=32631 fps=181 q=-0.0 size=N/A time=00:22:40.98 bitrate=N/A speed=7.56x    frame=32735 fps=181 q=-0.0 size=N/A time=00:22:45.32 bitrate=N/A speed=7.56x    frame=32831 fps=181 q=-0.0 size=N/A time=00:22:49.32 bitrate=N/A speed=7.56x    frame=32922 fps=181 q=-0.0 size=N/A time=00:22:53.12 bitrate=N/A speed=7.56x    frame=33011 fps=181 q=-0.0 size=N/A time=00:22:56.83 bitrate=N/A speed=7.56x    frame=33092 fps=181 q=-0.0 size=N/A time=00:23:00.21 bitrate=N/A speed=7.56x    frame=33195 fps=181 q=-0.0 size=N/A time=00:23:04.50 bitrate=N/A speed=7.56x    frame=33284 fps=181 q=-0.0 size=N/A time=00:23:08.22 bitrate=N/A speed=7.56x    frame=33370 fps=181 q=-0.0 size=N/A time=00:23:11.80 bitrate=N/A speed=7.56x    frame=33460 fps=181 q=-0.0 size=N/A time=00:23:15.56 bitrate=N/A speed=7.56x    frame=33550 fps=181 q=-0.0 size=N/A time=00:23:19.31 bitrate=N/A speed=7.56x    frame=33646 fps=181 q=-0.0 size=N/A time=00:23:23.31 bitrate=N/A speed=7.56x    frame=33740 fps=181 q=-0.0 size=N/A time=00:23:27.23 bitrate=N/A speed=7.56x    frame=33828 fps=181 q=-0.0 size=N/A time=00:23:30.90 bitrate=N/A speed=7.56x    frame=33931 fps=181 q=-0.0 size=N/A time=00:23:35.20 bitrate=N/A speed=7.56x    frame=34025 fps=181 q=-0.0 size=N/A time=00:23:39.12 bitrate=N/A speed=7.56x    frame=34123 fps=181 q=-0.0 size=N/A time=00:23:43.21 bitrate=N/A speed=7.56x    frame=34210 fps=181 q=-0.0 size=N/A time=00:23:46.84 bitrate=N/A speed=7.56x    frame=34312 fps=181 q=-0.0 size=N/A time=00:23:51.09 bitrate=N/A speed=7.56x    frame=34407 fps=181 q=-0.0 size=N/A time=00:23:55.05 bitrate=N/A speed=7.56x    [Parsed_ssim_10 @ 000001fe6f511380] SSIM Y:0.993066 (21.590168) U:0.993323 (21.754063) V:0.993528 (21.889689) All:0.993186 (21.665868)
[out#0/null @ 000001fe6d97ed80] video:14805KiB audio:269464KiB subtitle:0KiB other streams:0KiB global headers:0KiB muxing overhead: unknown
frame=34455 fps=181 q=-0.0 Lsize=N/A time=00:23:57.06 bitrate=N/A speed=7.56x    
